<svg viewBox="0 0 783.77 308.4" xmlns="http://www.w3.org/2000/svg"><g fill="#fff"><path d="M121.12 107.15v93.36m-1.69 0v-93.36h3.37v93.36zm95.41-93.36v93.36m-1.68 0v-93.36h3.36v93.36zm-185.77 0h93.73"/><path d="M27.39 202.19v-3.36h93.73v3.36zm90.42-1.68h93.72"/><path d="M117.81 202.19v-3.36h93.72v3.36zm4.77-95.03h93.75m-93.75 1.68v-3.37h93.75v3.37zm-67.79-1.68c0 15.12-12.26 27.39-27.39 27.39C12.26 134.54 0 122.28 0 107.16c0-15.13 12.26-27.4 27.39-27.4s27.4 12.26 27.4 27.4z"/><path d="M148.51 107.16c0 15.12-12.26 27.39-27.39 27.39s-27.39-12.26-27.39-27.39 12.27-27.4 27.39-27.4 27.39 12.26 27.39 27.4zm93.73 0c0 15.12-12.26 27.39-27.4 27.39-15.12 0-27.37-12.26-27.37-27.39s12.26-27.4 27.37-27.4c15.14 0 27.4 12.26 27.4 27.4zm0-79.77c0 15.12-12.26 27.39-27.4 27.39-15.12 0-27.37-12.26-27.37-27.39S199.72 0 214.84 0c15.14 0 27.4 12.26 27.4 27.39zM54.79 200.51c0 15.12-12.26 27.39-27.39 27.39-15.14 0-27.4-12.26-27.4-27.39s12.26-27.39 27.39-27.39 27.4 12.27 27.4 27.39zm93.72 0c0 15.12-12.26 27.39-27.39 27.39s-27.39-12.26-27.39-27.39 12.27-27.39 27.39-27.39 27.39 12.27 27.39 27.39zm0 80.5c0 15.12-12.26 27.39-27.39 27.39s-27.39-12.27-27.39-27.39 12.27-27.4 27.39-27.4c15.12.01 27.39 12.28 27.39 27.4zm93.73-80.5c0 15.12-12.26 27.39-27.4 27.39-15.12 0-27.37-12.26-27.37-27.39s12.26-27.39 27.37-27.39c15.14 0 27.4 12.27 27.4 27.39zm98.18-28.02v-39.28c0-1.4.49-2.46 1.46-3.17s2-1.06 3.08-1.06 2.05.35 2.92 1.06c.86.71 1.29 1.81 1.29 3.32v80.36c0 1.51-.46 2.62-1.38 3.32-.92.71-1.98 1-3.17.89-1.08 0-2.06-.35-2.92-1.05-.87-.7-1.3-1.76-1.3-3.16v-32.47h-39.29c-1.52 0-2.62-.36-3.33-1.06s-1.05-1.81-1.05-3.33V133.2c0-1.4.48-2.46 1.46-3.17s2-1.06 3.08-1.06 2.05.35 2.92 1.06c.86.71 1.3 1.81 1.3 3.32v39.12h34.93zm63.97-86.11c.97-.7 1.99-1.05 3.08-1.05 1.08 0 2.06.35 2.93 1.05s1.3 1.81 1.3 3.33v87.17c0 1.51-.36 2.62-1.06 3.33-.7.7-1.81 1.06-3.33 1.06h-44c-1.52 0-2.63-.36-3.33-1.06-.71-.7-1.06-1.81-1.06-3.33v-43.99c0-1.41.35-2.46 1.06-3.17.7-.71 1.81-1.11 3.33-1.22h32.47c1.52.11 2.63.63 3.33 1.54.7.92 1 1.98.89 3.17 0 1.08-.35 2.06-1.06 2.92-.7.87-1.76 1.3-3.17 1.3h-28.08v35.05h35.24V89.54c0-1.4.48-2.46 1.46-3.16zm84.4 86.11v-39.28c0-1.4.49-2.46 1.46-3.17s2-1.06 3.08-1.06 2.05.35 2.92 1.06 1.3 1.81 1.3 3.32v80.36c0 1.51-.45 2.62-1.38 3.32-.92.71-1.97 1-3.16.89-1.08 0-2.06-.35-2.93-1.05s-1.3-1.76-1.3-3.16v-32.47h-39.3c-1.51 0-2.62-.36-3.32-1.06-.71-.7-1.05-1.81-1.05-3.33V133.2c0-1.4.49-2.46 1.46-3.17.98-.71 2.01-1.06 3.09-1.06s2.05.35 2.92 1.06c.86.71 1.29 1.81 1.29 3.32v39.12h34.92zm26.62-36.51c-.76-.97-1.08-2-.98-3.09 0-1.08.36-2.06 1.06-2.92.71-.87 1.76-1.35 3.16-1.46h37.02c1.52.11 2.63.51 3.33 1.22.7.7 1.06 1.81 1.06 3.32v43.83c0 1.51-.35 2.62-1.06 3.33-.7.7-1.81 1.06-3.33 1.06h-43.99c-1.52 0-2.63-.36-3.33-1.06s-1.06-1.81-1.06-3.33v-25.96c0-1.41.36-2.46 1.06-3.17.7-.7 1.81-1.11 3.33-1.22h32.96c1.51.1 2.62.62 3.32 1.54.71.92 1.01 1.98.9 3.16 0 1.09-.35 2.06-1.06 2.92-.71.87-1.76 1.3-3.16 1.3h-28.58v17.03h35.23v-35.22h-32.64c-1.4.13-2.48-.3-3.24-1.28zm55.2.32c-.76-.97-1.13-2-1.13-3.08s.37-2.06 1.13-2.92c.76-.87 1.84-1.35 3.25-1.46h43.67c1.41.11 2.49.59 3.25 1.46s1.14 1.9 1.14 3.08c0 .55-.09 1.06-.25 1.55s-.51 1-1.05 1.54L584.4 172.5h33.12c1.52.11 2.62.62 3.33 1.54s1.01 1.93.9 3.01c0 1.08-.35 2.05-1.05 2.92-.71.87-1.76 1.3-3.17 1.3h-43.67c-1.41 0-2.5-.44-3.25-1.3-.76-.87-1.13-1.89-1.13-3.08 0-.43.11-.92.33-1.47.21-.54.54-1.02.97-1.46l36.2-36.35h-33.11c-1.42.1-2.5-.33-3.26-1.31zm62.5-6.25c.98-.71 2-1.06 3.08-1.06s2.05.35 2.92 1.06 1.31 1.81 1.31 3.32v43.5c0 1.51-.46 2.62-1.38 3.33-.92.7-1.98 1-3.16.89-1.09 0-2.06-.35-2.92-1.06-.87-.7-1.3-1.76-1.3-3.16v-43.66c-.01-1.4.48-2.45 1.45-3.16zm18.67-43.67c.98-.7 2-1.05 3.09-1.05 1.08 0 2.05.35 2.92 1.05.86.7 1.29 1.81 1.29 3.33v87.17c0 1.51-.46 2.62-1.38 3.33-.92.7-1.97 1-3.17.89-1.08 0-2.05-.35-2.91-1.06-.87-.7-1.3-1.76-1.3-3.16V89.54c0-1.4.49-2.46 1.46-3.16zm18.67 43.67c.97-.71 2-1.06 3.08-1.06s2.06.35 2.92 1.06c.87.71 1.31 1.81 1.31 3.32v43.5c0 1.51-.47 2.62-1.38 3.33-.92.7-1.98 1-3.16.89-1.09 0-2.06-.35-2.93-1.06-.87-.7-1.29-1.76-1.29-3.16v-43.66c-.01-1.4.48-2.45 1.45-3.16zm60.88 7.55h-34.9v39.28c0 1.51-.46 2.62-1.38 3.33-.92.7-1.98 1-3.16.89-1.08 0-2.06-.35-2.93-1.06-.87-.7-1.3-1.76-1.3-3.16v-43.66c0-1.4.36-2.46 1.06-3.17.71-.71 1.81-1.11 3.32-1.22h87.35c1.52.11 2.62.51 3.33 1.22.7.71 1.06 1.81 1.06 3.32v43.5c0 1.51-.46 2.62-1.38 3.33-.93.7-1.98 1-3.17.89-1.08 0-2.06-.35-2.92-1.06-.87-.7-1.3-1.76-1.3-3.16V137.6h-34.9v39.28c0 1.51-.46 2.62-1.38 3.33-.93.7-1.98 1-3.17.89-1.08 0-2.06-.35-2.92-1.06-.87-.7-1.3-1.76-1.3-3.16V137.6z"/></g></svg>